<mxfile host="app.diagrams.net" modified="2022-10-11T10:14:31.701Z" agent="5.0 (Macintosh; Intel Mac OS X 10_15_7) AppleWebKit/537.36 (KHTML, like Gecko) Chrome/105.0.0.0 Safari/537.36" etag="utOAk7sdfq2xsagk3-zq" version="20.4.0" type="github">
  <diagram id="OdbRNoy3vFBOWcBV_3Qq" name="第 1 页">
    <mxGraphModel dx="1298" dy="834" grid="1" gridSize="10" guides="1" tooltips="1" connect="1" arrows="1" fold="1" page="1" pageScale="1" pageWidth="827" pageHeight="1169" math="0" shadow="0">
      <root>
        <mxCell id="0" />
        <mxCell id="1" parent="0" />
        <mxCell id="q8unGH8EVhy42DJwBZNV-2" value="" style="verticalLabelPosition=bottom;verticalAlign=top;html=1;shadow=0;dashed=0;strokeWidth=1;shape=mxgraph.android.phone2;strokeColor=#000000;" vertex="1" parent="1">
          <mxGeometry x="230" y="75" width="40" height="70" as="geometry" />
        </mxCell>
        <mxCell id="q8unGH8EVhy42DJwBZNV-4" value="" style="rounded=0;whiteSpace=wrap;html=1;fillColor=#E6E6E6;" vertex="1" parent="1">
          <mxGeometry x="210" y="255" width="330" height="440" as="geometry" />
        </mxCell>
        <mxCell id="q8unGH8EVhy42DJwBZNV-5" value="" style="rounded=0;whiteSpace=wrap;html=1;fillColor=#ffe6cc;strokeColor=#d79b00;strokeWidth=1;" vertex="1" parent="1">
          <mxGeometry x="590" y="255" width="340" height="440" as="geometry" />
        </mxCell>
        <mxCell id="q8unGH8EVhy42DJwBZNV-9" style="edgeStyle=orthogonalEdgeStyle;curved=1;rounded=0;orthogonalLoop=1;jettySize=auto;html=1;dashed=1;" edge="1" parent="1" source="q8unGH8EVhy42DJwBZNV-6" target="q8unGH8EVhy42DJwBZNV-8">
          <mxGeometry relative="1" as="geometry" />
        </mxCell>
        <mxCell id="q8unGH8EVhy42DJwBZNV-10" value="镜像流量" style="edgeLabel;html=1;align=center;verticalAlign=middle;resizable=0;points=[];" vertex="1" connectable="0" parent="q8unGH8EVhy42DJwBZNV-9">
          <mxGeometry x="-0.1037" y="3" relative="1" as="geometry">
            <mxPoint x="19" y="3" as="offset" />
          </mxGeometry>
        </mxCell>
        <mxCell id="q8unGH8EVhy42DJwBZNV-17" style="edgeStyle=orthogonalEdgeStyle;curved=1;rounded=0;orthogonalLoop=1;jettySize=auto;html=1;entryX=0.5;entryY=0;entryDx=0;entryDy=0;" edge="1" parent="1" source="q8unGH8EVhy42DJwBZNV-6" target="q8unGH8EVhy42DJwBZNV-15">
          <mxGeometry relative="1" as="geometry" />
        </mxCell>
        <mxCell id="q8unGH8EVhy42DJwBZNV-6" value="Nginx&lt;br&gt;xxx.palmpay.com" style="rounded=0;whiteSpace=wrap;html=1;strokeColor=#82b366;fillColor=#d5e8d4;" vertex="1" parent="1">
          <mxGeometry x="220" y="295" width="140" height="60" as="geometry" />
        </mxCell>
        <mxCell id="q8unGH8EVhy42DJwBZNV-7" style="edgeStyle=orthogonalEdgeStyle;rounded=0;orthogonalLoop=1;jettySize=auto;html=1;entryX=0.5;entryY=0;entryDx=0;entryDy=0;curved=1;exitX=0.5;exitY=0.993;exitDx=0;exitDy=0;exitPerimeter=0;" edge="1" parent="1" source="q8unGH8EVhy42DJwBZNV-2" target="q8unGH8EVhy42DJwBZNV-6">
          <mxGeometry relative="1" as="geometry" />
        </mxCell>
        <mxCell id="q8unGH8EVhy42DJwBZNV-21" style="edgeStyle=orthogonalEdgeStyle;curved=1;rounded=0;orthogonalLoop=1;jettySize=auto;html=1;entryX=0.5;entryY=0;entryDx=0;entryDy=0;" edge="1" parent="1" source="q8unGH8EVhy42DJwBZNV-8" target="q8unGH8EVhy42DJwBZNV-16">
          <mxGeometry relative="1" as="geometry">
            <Array as="points">
              <mxPoint x="835" y="475" />
              <mxPoint x="770" y="475" />
            </Array>
          </mxGeometry>
        </mxCell>
        <mxCell id="q8unGH8EVhy42DJwBZNV-8" value="Nginx&lt;br&gt;mirror.xxx.palmpay.com" style="rounded=0;whiteSpace=wrap;html=1;strokeColor=#82b366;fillColor=#d5e8d4;" vertex="1" parent="1">
          <mxGeometry x="750" y="295" width="170" height="60" as="geometry" />
        </mxCell>
        <mxCell id="q8unGH8EVhy42DJwBZNV-13" style="edgeStyle=orthogonalEdgeStyle;curved=1;rounded=0;orthogonalLoop=1;jettySize=auto;html=1;entryX=0;entryY=0.5;entryDx=0;entryDy=0;dashed=1;" edge="1" parent="1" source="q8unGH8EVhy42DJwBZNV-11" target="q8unGH8EVhy42DJwBZNV-12">
          <mxGeometry relative="1" as="geometry" />
        </mxCell>
        <mxCell id="q8unGH8EVhy42DJwBZNV-14" value="镜像流量" style="edgeLabel;html=1;align=center;verticalAlign=middle;resizable=0;points=[];" vertex="1" connectable="0" parent="q8unGH8EVhy42DJwBZNV-13">
          <mxGeometry x="0.0286" y="2" relative="1" as="geometry">
            <mxPoint y="1" as="offset" />
          </mxGeometry>
        </mxCell>
        <mxCell id="q8unGH8EVhy42DJwBZNV-18" style="edgeStyle=orthogonalEdgeStyle;curved=1;rounded=0;orthogonalLoop=1;jettySize=auto;html=1;entryX=0.5;entryY=0;entryDx=0;entryDy=0;" edge="1" parent="1" source="q8unGH8EVhy42DJwBZNV-11" target="q8unGH8EVhy42DJwBZNV-15">
          <mxGeometry relative="1" as="geometry" />
        </mxCell>
        <mxCell id="q8unGH8EVhy42DJwBZNV-11" value="Nginx&lt;br&gt;callback.palmpay.com" style="rounded=0;whiteSpace=wrap;html=1;strokeColor=#82b366;fillColor=#d5e8d4;" vertex="1" parent="1">
          <mxGeometry x="380" y="405" width="140" height="60" as="geometry" />
        </mxCell>
        <mxCell id="q8unGH8EVhy42DJwBZNV-22" style="edgeStyle=orthogonalEdgeStyle;curved=1;rounded=0;orthogonalLoop=1;jettySize=auto;html=1;entryX=0.5;entryY=0;entryDx=0;entryDy=0;" edge="1" parent="1" source="q8unGH8EVhy42DJwBZNV-12" target="q8unGH8EVhy42DJwBZNV-16">
          <mxGeometry relative="1" as="geometry" />
        </mxCell>
        <mxCell id="q8unGH8EVhy42DJwBZNV-12" value="Nginx&lt;br&gt;mirror.callback.palmpay.com" style="rounded=0;whiteSpace=wrap;html=1;strokeColor=#82b366;fillColor=#d5e8d4;" vertex="1" parent="1">
          <mxGeometry x="620" y="405" width="170" height="60" as="geometry" />
        </mxCell>
        <mxCell id="q8unGH8EVhy42DJwBZNV-27" style="rounded=0;orthogonalLoop=1;jettySize=auto;html=1;entryX=0.16;entryY=0.55;entryDx=0;entryDy=0;entryPerimeter=0;fontSize=13;fontColor=#000000;exitX=0;exitY=0.5;exitDx=0;exitDy=0;edgeStyle=orthogonalEdgeStyle;curved=1;" edge="1" parent="1" source="q8unGH8EVhy42DJwBZNV-15" target="q8unGH8EVhy42DJwBZNV-19">
          <mxGeometry relative="1" as="geometry">
            <Array as="points">
              <mxPoint x="180" y="580" />
              <mxPoint x="180" y="185" />
              <mxPoint x="380" y="185" />
              <mxPoint x="380" y="114" />
            </Array>
          </mxGeometry>
        </mxCell>
        <mxCell id="q8unGH8EVhy42DJwBZNV-28" value="调用第三方渠道" style="edgeLabel;html=1;align=center;verticalAlign=middle;resizable=0;points=[];fontSize=13;fontColor=#000000;" vertex="1" connectable="0" parent="q8unGH8EVhy42DJwBZNV-27">
          <mxGeometry x="-0.3159" y="-2" relative="1" as="geometry">
            <mxPoint y="1" as="offset" />
          </mxGeometry>
        </mxCell>
        <mxCell id="q8unGH8EVhy42DJwBZNV-15" value="业务系统" style="rounded=0;whiteSpace=wrap;html=1;strokeColor=#000000;fillColor=#FFFFFF;" vertex="1" parent="1">
          <mxGeometry x="260" y="505" width="220" height="150" as="geometry" />
        </mxCell>
        <mxCell id="q8unGH8EVhy42DJwBZNV-16" value="业务系统" style="rounded=0;whiteSpace=wrap;html=1;strokeColor=#000000;fillColor=#FFFFFF;" vertex="1" parent="1">
          <mxGeometry x="660" y="505" width="220" height="150" as="geometry" />
        </mxCell>
        <mxCell id="q8unGH8EVhy42DJwBZNV-20" style="edgeStyle=orthogonalEdgeStyle;curved=1;rounded=0;orthogonalLoop=1;jettySize=auto;html=1;entryX=0.5;entryY=0;entryDx=0;entryDy=0;" edge="1" parent="1" source="q8unGH8EVhy42DJwBZNV-19" target="q8unGH8EVhy42DJwBZNV-11">
          <mxGeometry relative="1" as="geometry" />
        </mxCell>
        <mxCell id="q8unGH8EVhy42DJwBZNV-19" value="第三方渠道" style="ellipse;shape=cloud;whiteSpace=wrap;html=1;strokeColor=#000000;fillColor=#FFFFFF;" vertex="1" parent="1">
          <mxGeometry x="470" y="70" width="120" height="80" as="geometry" />
        </mxCell>
        <mxCell id="q8unGH8EVhy42DJwBZNV-23" value="三方渠道挡板" style="rounded=0;whiteSpace=wrap;html=1;strokeColor=#FF0000;strokeWidth=2;fillColor=#FFFFFF;" vertex="1" parent="1">
          <mxGeometry x="570" y="205" width="380" height="20" as="geometry" />
        </mxCell>
        <mxCell id="q8unGH8EVhy42DJwBZNV-24" style="edgeStyle=orthogonalEdgeStyle;curved=1;rounded=0;orthogonalLoop=1;jettySize=auto;html=1;entryX=0.875;entryY=0.5;entryDx=0;entryDy=0;entryPerimeter=0;exitX=1;exitY=0.5;exitDx=0;exitDy=0;dashed=1;strokeColor=#FF0000;" edge="1" parent="1" source="q8unGH8EVhy42DJwBZNV-16" target="q8unGH8EVhy42DJwBZNV-19">
          <mxGeometry relative="1" as="geometry">
            <Array as="points">
              <mxPoint x="950" y="580" />
              <mxPoint x="950" y="110" />
            </Array>
          </mxGeometry>
        </mxCell>
        <mxCell id="q8unGH8EVhy42DJwBZNV-25" value="X" style="edgeLabel;html=1;align=center;verticalAlign=middle;resizable=0;points=[];fontStyle=1;fontSize=26;fontColor=#FF0000;" vertex="1" connectable="0" parent="q8unGH8EVhy42DJwBZNV-24">
          <mxGeometry x="0.0861" y="67" relative="1" as="geometry">
            <mxPoint x="27" y="57" as="offset" />
          </mxGeometry>
        </mxCell>
        <mxCell id="q8unGH8EVhy42DJwBZNV-26" value="调用第三方渠道" style="edgeLabel;html=1;align=center;verticalAlign=middle;resizable=0;points=[];fontSize=13;fontColor=#000000;" vertex="1" connectable="0" parent="q8unGH8EVhy42DJwBZNV-24">
          <mxGeometry x="-0.2943" y="1" relative="1" as="geometry">
            <mxPoint x="11" y="53" as="offset" />
          </mxGeometry>
        </mxCell>
      </root>
    </mxGraphModel>
  </diagram>
</mxfile>
